<svg xmlns="http://www.w3.org/2000/svg" version="1.1" xmlns:xlink="http://www.w3.org/1999/xlink" xmlns:svgjs="http://svgjs.dev/svgjs" width="1500" height="450" viewBox="0 0 1500 450"><g transform="matrix(1,0,0,1,-0.9090909090911055,-1.6535425165038191)"><svg viewBox="0 0 396 119" data-background-color="#efefef" preserveAspectRatio="xMidYMid meet" height="450" width="1500" xmlns="http://www.w3.org/2000/svg" xmlns:xlink="http://www.w3.org/1999/xlink"><g id="tight-bounds" transform="matrix(1,0,0,1,0.24000000000003752,0.4372701321421175)"><svg viewBox="0 0 395.5199999999999 118.12545973571575" height="118.12545973571575" width="395.5199999999999"><g><svg viewBox="0 0 397.4975999999999 118.71608703439432" height="118.12545973571575" width="395.5199999999999"><g><rect width="397.4975999999999" height="3.395959535773586" x="0" y="60.93211066609197" fill="#efefef" opacity="1" stroke-width="0" stroke="transparent" fill-opacity="1" class="rect-yte-0" data-fill-palette-color="primary" rx="1%" id="yte-0" data-palette-color="#efefef"></rect></g><g><rect width="397.4975999999999" height="3.395959535773586" x="0" y="68.77304341622889" fill="#efefef" opacity="1" stroke-width="0" stroke="transparent" fill-opacity="1" class="rect-yte-1" data-fill-palette-color="primary" rx="1%" id="yte-1" data-palette-color="#efefef"></rect></g><g transform="matrix(1,0,0,1,0.9887999999999693,81.05894938072913)"><svg viewBox="0 0 395.52 37.657137653665195" height="37.657137653665195" width="395.52"><g id="textblocktransform"><svg viewBox="0 0 395.52 37.657137653665195" height="37.657137653665195" width="395.52" id="textblock"><g><svg viewBox="0 0 395.52 37.657137653665195" height="37.657137653665195" width="395.52"><g transform="matrix(1,0,0,1,0,0)"><svg width="395.52" viewBox="4.44 -35.23 482.55 45.949999999999996" height="37.657137653665195" data-palette-color="#efefef"><path d="M11.87 0L4.44 0 4.44-35.11 11.87-35.11Q14.87-35.11 17.44-34.8 20.02-34.5 22.17-33.74L22.17-33.74Q24.32-32.98 25.94-31.73 27.56-30.47 28.74-28.52L28.74-28.52Q29.88-26.56 30.47-23.88 31.05-21.19 31.05-17.55L31.05-17.55Q31.05-13.92 30.47-11.23 29.88-8.54 28.74-6.59L28.74-6.59Q27.56-4.64 25.94-3.38 24.32-2.12 22.17-1.37L22.17-1.37Q20.02-0.61 17.44-0.31 14.87 0 11.87 0L11.87 0ZM9.03-3.76L12.62-3.76Q16.36-3.76 18.96-4.5 21.56-5.25 23.22-6.93L23.22-6.93Q24.85-8.62 25.6-11.22 26.34-13.82 26.34-17.55L26.34-17.55Q26.34-21.29 25.6-23.89 24.85-26.49 23.22-28.17L23.22-28.17Q21.56-29.86 18.96-30.6 16.36-31.35 12.62-31.35L12.62-31.35 9.03-31.35 9.03-3.76ZM39.18-20.9L39.18-20.9 38.11-24.32Q42.21-25.95 46.7-25.95L46.7-25.95Q50.63-25.95 52.71-24.63L52.71-24.63Q55.08-23.12 55.08-19.48L55.08-19.48 55.08-9.5Q55.08-7.5 55.12-5.4L55.12-5.4Q55.15-4.15 55.37-2.81L55.37-2.81Q55.56-1.54 55.88-0.39L55.88-0.39 51.88 0.49Q51.32-1.15 51.17-3.17L51.17-3.17 50.68-3.22Q47.65 0.59 42.97 0.59L42.97 0.59Q39.55 0.59 37.47-1.31 35.4-3.2 35.4-6.64L35.4-6.64Q35.4-9.2 36.53-10.84 37.67-12.48 39.74-13.6L39.74-13.6Q43.02-15.38 48.9-15.38L48.9-15.38Q49.68-15.38 51-15.33L51-15.33 51-19.04Q51-20.8 49.92-21.58 48.85-22.36 46.56-22.36L46.56-22.36Q43.21-22.36 39.18-20.9ZM51-7.13L51-7.13 51-12.26Q50.34-12.3 49.07-12.3L49.07-12.3Q46.92-12.3 45.11-11.94L45.11-11.94Q42.43-11.4 40.95-10.24 39.48-9.08 39.48-6.91L39.48-6.91Q39.48-3 43.72-3L43.72-3Q45.92-3 47.82-4.17L47.82-4.17Q49.39-5.15 51-7.13ZM65.35-25.39L65.35-31.2 69.55-31.2 69.55-25.39 78.1-25.39 78.1-21.85 69.55-21.85 69.55-7.28Q69.55-5.81 69.64-5.04 69.72-4.27 70.06-3.83L70.06-3.83Q70.7-2.95 72.63-2.95L72.63-2.95Q73.7-2.95 74.7-3.17L74.7-3.17Q75.73-3.39 76.58-3.66L76.58-3.66Q77.27-2.17 77.83-0.39L77.83-0.39Q74.95 0.59 72.02 0.59L72.02 0.59Q69.89 0.59 68.61 0.11 67.33-0.37 66.6-1.44L66.6-1.44Q65.84-2.56 65.6-4.13 65.35-5.69 65.35-8.45L65.35-8.45 65.35-21.85 61.69-21.85 61.69-25.39 65.35-25.39ZM85.61-20.9L85.61-20.9 84.54-24.32Q88.64-25.95 93.13-25.95L93.13-25.95Q97.06-25.95 99.14-24.63L99.14-24.63Q101.51-23.12 101.51-19.48L101.51-19.48 101.51-9.5Q101.51-7.5 101.56-5.4L101.56-5.4Q101.58-4.15 101.8-2.81L101.8-2.81Q101.99-1.54 102.31-0.39L102.31-0.39 98.31 0.49Q97.75-1.15 97.6-3.17L97.6-3.17 97.11-3.22Q94.08 0.59 89.4 0.59L89.4 0.59Q85.98 0.59 83.9-1.31 81.83-3.2 81.83-6.64L81.83-6.64Q81.83-9.2 82.96-10.84 84.1-12.48 86.17-13.6L86.17-13.6Q89.45-15.38 95.33-15.38L95.33-15.38Q96.11-15.38 97.43-15.33L97.43-15.33 97.43-19.04Q97.43-20.8 96.35-21.58 95.28-22.36 92.99-22.36L92.99-22.36Q89.64-22.36 85.61-20.9ZM97.43-7.13L97.43-7.13 97.43-12.26Q96.77-12.3 95.5-12.3L95.5-12.3Q93.35-12.3 91.55-11.94L91.55-11.94Q88.86-11.4 87.38-10.24 85.91-9.08 85.91-6.91L85.91-6.91Q85.91-3 90.15-3L90.15-3Q92.35-3 94.26-4.17L94.26-4.17Q95.82-5.15 97.43-7.13ZM152.53 0L147.86 0 143.25-11.94 129.36-11.94 124.74 0 120.08 0 134-35.11 138.61-35.11 152.53 0ZM136.29-29.98L130.8-15.7 141.81-15.7 136.29-29.98ZM156.31-24.95L156.31-24.95 160.36-25.85Q160.82-24.39 161.02-23.02L161.02-23.02Q161.12-22.36 161.26-20.41L161.26-20.41 161.78-20.41Q163.12-22.88 165.1-24.34L165.1-24.34Q167.27-25.95 169.69-25.95L169.69-25.95Q173.32-25.95 175.23-24.19L175.23-24.19Q176.86-22.71 177.5-19.63L177.5-19.63Q177.91-17.53 177.91-13.38L177.91-13.38 177.91 0 173.72 0 173.72-14.55Q173.72-18.19 173.01-19.75L173.01-19.75Q171.96-22.07 168.78-22.07L168.78-22.07Q166.54-22.07 164.39-19.92L164.39-19.92Q162.95-18.48 161.31-15.7L161.31-15.7 161.31 0 157.11 0 157.11-15.63Q157.11-18.92 156.94-21.31L156.94-21.31Q156.85-22.8 156.31-24.95ZM184.31-24.95L184.31-24.95 188.36-25.85Q188.83-24.39 189.02-23.02L189.02-23.02Q189.12-22.36 189.26-20.41L189.26-20.41 189.78-20.41Q191.12-22.88 193.1-24.34L193.1-24.34Q195.27-25.95 197.69-25.95L197.69-25.95Q201.33-25.95 203.23-24.19L203.23-24.19Q204.87-22.71 205.5-19.63L205.5-19.63Q205.92-17.53 205.92-13.38L205.92-13.38 205.92 0 201.72 0 201.72-14.55Q201.72-18.19 201.01-19.75L201.01-19.75Q199.96-22.07 196.78-22.07L196.78-22.07Q194.54-22.07 192.39-19.92L192.39-19.92Q190.95-18.48 189.31-15.7L189.31-15.7 189.31 0 185.11 0 185.11-15.63Q185.11-18.92 184.94-21.31L184.94-21.31Q184.85-22.8 184.31-24.95ZM222.56-25.95L222.56-25.95Q223.76-25.95 225.05-25.77 226.35-25.59 227.59-25.07L227.59-25.07Q228.84-24.54 229.95-23.62 231.06-22.71 231.91-21.24L231.91-21.24Q232.77-19.75 233.26-17.66 233.74-15.58 233.74-12.7L233.74-12.7Q233.74-9.81 233.26-7.73 232.77-5.64 231.91-4.17L231.91-4.17Q231.06-2.69 229.95-1.76 228.84-0.83 227.59-0.32L227.59-0.32Q226.35 0.22 225.05 0.4 223.76 0.59 222.56 0.59L222.56 0.59Q221.39 0.59 220.11 0.4 218.83 0.22 217.58-0.32L217.58-0.32Q216.34-0.83 215.24-1.76 214.14-2.69 213.29-4.17L213.29-4.17Q212.43-5.64 211.94-7.73 211.45-9.81 211.45-12.7L211.45-12.7Q211.45-15.58 211.94-17.66 212.43-19.75 213.29-21.24L213.29-21.24Q214.14-22.71 215.24-23.62 216.34-24.54 217.58-25.07L217.58-25.07Q218.83-25.59 220.1-25.77 221.37-25.95 222.56-25.95ZM222.56-22.51L222.56-22.51Q221.17-22.51 219.94-22.07 218.71-21.63 217.78-20.53L217.78-20.53Q216.83-19.41 216.26-17.53 215.7-15.65 215.7-12.7L215.7-12.7Q215.7-9.77 216.26-7.87 216.83-5.98 217.78-4.88L217.78-4.88Q218.71-3.76 219.94-3.33 221.17-2.91 222.56-2.91L222.56-2.91Q223.98-2.91 225.24-3.33 226.49-3.76 227.45-4.88L227.45-4.88Q228.4-5.98 228.95-7.87 229.5-9.77 229.5-12.7L229.5-12.7Q229.5-15.65 228.95-17.53 228.4-19.41 227.45-20.53L227.45-20.53Q226.49-21.63 225.24-22.07 223.98-22.51 222.56-22.51ZM242.53-25.39L242.53-31.2 246.73-31.2 246.73-25.39 255.28-25.39 255.28-21.85 246.73-21.85 246.73-7.28Q246.73-5.81 246.82-5.04 246.9-4.27 247.24-3.83L247.24-3.83Q247.88-2.95 249.81-2.95L249.81-2.95Q250.88-2.95 251.88-3.17L251.88-3.17Q252.91-3.39 253.76-3.66L253.76-3.66Q254.45-2.17 255.01-0.39L255.01-0.39Q252.13 0.59 249.2 0.59L249.2 0.59Q247.07 0.59 245.79 0.11 244.51-0.37 243.78-1.44L243.78-1.44Q243.02-2.56 242.78-4.13 242.53-5.69 242.53-8.45L242.53-8.45 242.53-21.85 238.87-21.85 238.87-25.39 242.53-25.39ZM262.79-20.9L262.79-20.9 261.72-24.32Q265.82-25.95 270.31-25.95L270.31-25.95Q274.24-25.95 276.32-24.63L276.32-24.63Q278.69-23.12 278.69-19.48L278.69-19.48 278.69-9.5Q278.69-7.5 278.73-5.4L278.73-5.4Q278.76-4.15 278.98-2.81L278.98-2.81Q279.17-1.54 279.49-0.39L279.49-0.39 275.49 0.49Q274.93-1.15 274.78-3.17L274.78-3.17 274.29-3.22Q271.26 0.59 266.58 0.59L266.58 0.59Q263.16 0.59 261.08-1.31 259.01-3.2 259.01-6.64L259.01-6.64Q259.01-9.2 260.14-10.84 261.28-12.48 263.35-13.6L263.35-13.6Q266.63-15.38 272.51-15.38L272.51-15.38Q273.29-15.38 274.61-15.33L274.61-15.33 274.61-19.04Q274.61-20.8 273.53-21.58 272.46-22.36 270.17-22.36L270.17-22.36Q266.82-22.36 262.79-20.9ZM274.61-7.13L274.61-7.13 274.61-12.26Q273.95-12.3 272.68-12.3L272.68-12.3Q270.53-12.3 268.73-11.94L268.73-11.94Q266.04-11.4 264.56-10.24 263.09-9.08 263.09-6.91L263.09-6.91Q263.09-3 267.33-3L267.33-3Q269.53-3 271.43-4.17L271.43-4.17Q273-5.15 274.61-7.13ZM288.96-25.39L288.96-31.2 293.16-31.2 293.16-25.39 301.71-25.39 301.71-21.85 293.16-21.85 293.16-7.28Q293.16-5.81 293.25-5.04 293.33-4.27 293.67-3.83L293.67-3.83Q294.31-2.95 296.24-2.95L296.24-2.95Q297.31-2.95 298.31-3.17L298.31-3.17Q299.34-3.39 300.19-3.66L300.19-3.66Q300.88-2.17 301.44-0.39L301.44-0.39Q298.56 0.59 295.63 0.59L295.63 0.59Q293.5 0.59 292.22 0.11 290.94-0.37 290.21-1.44L290.21-1.44Q289.45-2.56 289.21-4.13 288.96-5.69 288.96-8.45L288.96-8.45 288.96-21.85 285.3-21.85 285.3-25.39 288.96-25.39ZM310.2-35.23L310.2-35.23Q311.32-35.23 312.15-34.45L312.15-34.45Q312.96-33.59 312.96-32.45L312.96-32.45Q312.96-31.27 312.15-30.47L312.15-30.47Q311.32-29.64 310.2-29.64L310.2-29.64Q309.03-29.64 308.2-30.47L308.2-30.47Q307.37-31.25 307.37-32.45L307.37-32.45Q307.37-33.62 308.2-34.45L308.2-34.45Q309.03-35.23 310.2-35.23ZM308.05 0L308.05-25.39 312.25-25.39 312.25 0 308.05 0ZM330.44-25.95L330.44-25.95Q331.63-25.95 332.93-25.77 334.22-25.59 335.47-25.07L335.47-25.07Q336.71-24.54 337.82-23.62 338.93-22.71 339.79-21.24L339.79-21.24Q340.64-19.75 341.13-17.66 341.62-15.58 341.62-12.7L341.62-12.7Q341.62-9.81 341.13-7.73 340.64-5.64 339.79-4.17L339.79-4.17Q338.93-2.69 337.82-1.76 336.71-0.83 335.47-0.32L335.47-0.32Q334.22 0.22 332.93 0.4 331.63 0.59 330.44 0.59L330.44 0.59Q329.26 0.59 327.98 0.4 326.7 0.22 325.46-0.32L325.46-0.32Q324.21-0.83 323.11-1.76 322.01-2.69 321.16-4.17L321.16-4.17Q320.3-5.64 319.82-7.73 319.33-9.81 319.33-12.7L319.33-12.7Q319.33-15.58 319.82-17.66 320.3-19.75 321.16-21.24L321.16-21.24Q322.01-22.71 323.11-23.62 324.21-24.54 325.46-25.07L325.46-25.07Q326.7-25.59 327.97-25.77 329.24-25.95 330.44-25.95ZM330.44-22.51L330.44-22.51Q329.04-22.51 327.81-22.07 326.58-21.63 325.65-20.53L325.65-20.53Q324.7-19.41 324.14-17.53 323.58-15.65 323.58-12.7L323.58-12.7Q323.58-9.77 324.14-7.87 324.7-5.98 325.65-4.88L325.65-4.88Q326.58-3.76 327.81-3.33 329.04-2.91 330.44-2.91L330.44-2.91Q331.85-2.91 333.11-3.33 334.37-3.76 335.32-4.88L335.32-4.88Q336.27-5.98 336.82-7.87 337.37-9.77 337.37-12.7L337.37-12.7Q337.37-15.65 336.82-17.53 336.27-19.41 335.32-20.53L335.32-20.53Q334.37-21.63 333.11-22.07 331.85-22.51 330.44-22.51ZM347.35-24.95L347.35-24.95 351.41-25.85Q351.87-24.39 352.06-23.02L352.06-23.02Q352.16-22.36 352.31-20.41L352.31-20.41 352.82-20.41Q354.16-22.88 356.14-24.34L356.14-24.34Q358.31-25.95 360.73-25.95L360.73-25.95Q364.37-25.95 366.27-24.19L366.27-24.19Q367.91-22.71 368.54-19.63L368.54-19.63Q368.96-17.53 368.96-13.38L368.96-13.38 368.96 0 364.76 0 364.76-14.55Q364.76-18.19 364.05-19.75L364.05-19.75Q363-22.07 359.83-22.07L359.83-22.07Q357.58-22.07 355.43-19.92L355.43-19.92Q353.99-18.48 352.36-15.7L352.36-15.7 352.36 0 348.16 0 348.16-15.63Q348.16-18.92 347.99-21.31L347.99-21.31Q347.89-22.8 347.35-24.95ZM390.98 0L390.98-35.11 395.57-35.11 395.57-3.76 409.95-3.76 409.95 0 390.98 0ZM425.2-25.95L425.2-25.95Q426.4-25.95 427.69-25.77 428.99-25.59 430.23-25.07L430.23-25.07Q431.48-24.54 432.59-23.62 433.7-22.71 434.55-21.24L434.55-21.24Q435.41-19.75 435.9-17.66 436.38-15.58 436.38-12.7L436.38-12.7Q436.38-9.81 435.9-7.73 435.41-5.64 434.55-4.17L434.55-4.17Q433.7-2.69 432.59-1.76 431.48-0.83 430.23-0.32L430.23-0.32Q428.99 0.22 427.69 0.4 426.4 0.59 425.2 0.59L425.2 0.59Q424.03 0.59 422.75 0.4 421.47 0.22 420.22-0.32L420.22-0.32Q418.98-0.83 417.88-1.76 416.78-2.69 415.92-4.17L415.92-4.17Q415.07-5.64 414.58-7.73 414.09-9.81 414.09-12.7L414.09-12.7Q414.09-15.58 414.58-17.66 415.07-19.75 415.92-21.24L415.92-21.24Q416.78-22.71 417.88-23.62 418.98-24.54 420.22-25.07L420.22-25.07Q421.47-25.59 422.74-25.77 424.01-25.95 425.2-25.95ZM425.2-22.51L425.2-22.51Q423.81-22.51 422.58-22.07 421.34-21.63 420.42-20.53L420.42-20.53Q419.46-19.41 418.9-17.53 418.34-15.65 418.34-12.7L418.34-12.7Q418.34-9.77 418.9-7.87 419.46-5.98 420.42-4.88L420.42-4.88Q421.34-3.76 422.58-3.33 423.81-2.91 425.2-2.91L425.2-2.91Q426.62-2.91 427.87-3.33 429.13-3.76 430.08-4.88L430.08-4.88Q431.04-5.98 431.59-7.87 432.14-9.77 432.14-12.7L432.14-12.7Q432.14-15.65 431.59-17.53 431.04-19.41 430.08-20.53L430.08-20.53Q429.13-21.63 427.87-22.07 426.62-22.51 425.2-22.51ZM455.18-25.39L457.43-25.39Q458.48-25.39 459.27-25.42 460.06-25.44 460.79-25.52 461.53-25.61 462.27-25.78 463.02-25.95 464.02-26.27L464.02-26.27Q464.33-25.34 464.64-24.51 464.95-23.68 465.26-22.8L465.26-22.8Q464.48-22.51 463.82-22.34 463.16-22.17 462.52-22.06 461.87-21.95 461.22-21.91 460.58-21.88 459.84-21.85L459.84-21.85Q460.53-20.75 460.89-19.38 461.26-18.02 461.26-16.41L461.26-16.41Q461.26-14.06 460.55-12.32 459.84-10.57 458.52-9.35L458.52-9.35Q457.21-8.13 455.36-7.51 453.52-6.88 451.22-6.88L451.22-6.88Q450.05-6.88 449-7.02 447.95-7.15 447-7.5L447-7.5Q446.78-6.91 446.62-6.3 446.46-5.69 446.48-5.14 446.49-4.59 446.68-4.14 446.88-3.69 447.37-3.42L447.37-3.42Q447.61-3.27 447.88-3.19 448.15-3.1 448.53-3.04 448.91-2.98 449.44-2.94 449.98-2.91 450.74-2.91L450.74-2.91Q451.47-2.88 452.46-2.88 453.45-2.88 454.76-2.88L454.76-2.88Q458.57-2.88 460.53-1.28 462.48 0.32 462.48 3.69L462.48 3.69Q462.48 5.05 462.04 6.12 461.6 7.18 460.83 7.96 460.06 8.74 459.01 9.27 457.96 9.79 456.74 10.12 455.52 10.45 454.19 10.58 452.86 10.72 451.52 10.72L451.52 10.72Q450.17 10.72 448.82 10.57 447.46 10.42 446.17 10.21L446.17 10.21Q444.88 9.99 443.74 9.7 442.61 9.42 441.73 9.16L441.73 9.16Q442.07 8.33 442.5 7.5 442.92 6.67 443.41 5.93L443.41 5.93Q444.95 6.37 447.07 6.79 449.2 7.2 451.79 7.2L451.79 7.2Q452.96 7.2 454.09 7.06 455.23 6.91 456.14 6.51 457.06 6.1 457.62 5.43 458.18 4.76 458.18 3.69L458.18 3.69Q458.18 2.56 457.78 1.95 457.38 1.34 456.69 1.05 456.01 0.76 455.08 0.71 454.15 0.66 453.13 0.66L453.13 0.66 449.93 0.66Q448.49 0.66 447.22 0.44 445.95 0.22 445-0.31 444.05-0.83 443.5-1.68 442.95-2.54 442.95-3.78L442.95-3.78Q442.95-4.98 443.39-6.26 443.83-7.54 444.54-8.86L444.54-8.86Q442.92-10.03 442.06-11.96 441.19-13.89 441.19-16.41L441.19-16.41Q441.19-18.7 441.91-20.47 442.63-22.24 443.95-23.49L443.95-23.49Q445.27-24.73 447.1-25.34 448.93-25.95 451.22-25.95L451.22-25.95Q453.37-25.95 455.18-25.39L455.18-25.39ZM451.22-22.58L451.22-22.58Q449.69-22.58 448.59-22.12 447.49-21.66 446.79-20.84 446.1-20.02 445.77-18.88 445.44-17.75 445.44-16.41L445.44-16.41Q445.44-15.04 445.77-13.92 446.1-12.79 446.81-11.98 447.51-11.16 448.6-10.71 449.69-10.25 451.22-10.25L451.22-10.25Q452.76-10.25 453.86-10.71 454.96-11.16 455.66-11.98 456.35-12.79 456.68-13.93 457.01-15.06 457.01-16.41L457.01-16.41Q457.01-17.75 456.68-18.88 456.35-20.02 455.66-20.84 454.96-21.66 453.86-22.12 452.76-22.58 451.22-22.58ZM477.76-25.95L477.76-25.95Q479.76-25.95 481.78-25.54 483.79-25.12 485.52-24.39L485.52-24.39Q485.18-23.61 484.82-22.85 484.45-22.09 484.01-21.36L484.01-21.36Q483.4-21.61 482.66-21.85 481.91-22.09 481.09-22.27 480.27-22.44 479.41-22.55 478.54-22.66 477.71-22.66L477.71-22.66Q476.81-22.66 475.97-22.47 475.12-22.29 474.48-21.88 473.83-21.46 473.44-20.79 473.05-20.12 473.05-19.12L473.05-19.12Q473.05-18.09 473.49-17.4 473.93-16.7 474.68-16.24 475.44-15.77 476.45-15.45 477.47-15.14 478.61-14.87L478.61-14.87Q480.4-14.43 481.93-13.88 483.47-13.33 484.6-12.45 485.72-11.57 486.35-10.28 486.99-8.98 486.99-7.08L486.99-7.08Q486.99-5.08 486.2-3.64 485.4-2.2 484.05-1.26 482.69-0.32 480.89 0.13 479.08 0.59 477.03 0.59L477.03 0.59Q475.95 0.59 474.82 0.45 473.68 0.32 472.57 0.06 471.46-0.2 470.39-0.56 469.31-0.93 468.36-1.37L468.36-1.37Q468.7-2.15 469.08-2.89 469.46-3.64 469.87-4.37L469.87-4.37Q470.68-4.03 471.58-3.72 472.49-3.42 473.44-3.2 474.39-2.98 475.32-2.84 476.25-2.71 477.1-2.71L477.1-2.71Q478.18-2.71 479.19-2.95 480.2-3.2 480.99-3.72 481.79-4.25 482.26-5.08 482.74-5.91 482.74-7.08L482.74-7.08Q482.74-8.18 482.29-8.89 481.84-9.59 481.08-10.07 480.32-10.55 479.31-10.85 478.3-11.16 477.17-11.43L477.17-11.43Q475.47-11.84 473.94-12.38 472.41-12.92 471.28-13.78 470.14-14.65 469.47-15.93 468.8-17.21 468.8-19.12L468.8-19.12Q468.8-20.9 469.53-22.19 470.27-23.49 471.5-24.32 472.73-25.15 474.35-25.55 475.98-25.95 477.76-25.95Z" opacity="1" transform="matrix(1,0,0,1,0,0)" fill="#efefef" class="wordmark-text-0" data-fill-palette-color="primary" id="text-0"></path></svg></g></svg></g></svg></g></svg></g><g transform="matrix(1,0,0,1,175.85024773555924,0)"><svg viewBox="0 0 45.79710452888146 52.042164237365306" height="52.042164237365306" width="45.79710452888146"><g><svg xmlns="http://www.w3.org/2000/svg" xmlns:xlink="http://www.w3.org/1999/xlink" version="1.1" x="0" y="0" viewBox="10.4 5 79.19999999999999 90" style="enable-background:new 0 0 100 100;" xml:space="preserve" height="52.042164237365306" width="45.79710452888146" class="icon-icon-0" data-fill-palette-color="accent" id="icon-0"><path d="M75.2 5H24.8C16.9 5 10.4 11.5 10.4 19.4V48.2C10.4 56.1 16.9 62.6 24.8 62.6H41.3L18.7 85.3C17.3 86.7 17.3 89 18.7 90.4 19.4 91.1 20.3 91.5 21.2 91.5S23 91.1 23.7 90.4L46.4 67.7V91.4C46.4 93.4 48 95 50 95S53.6 93.4 53.6 91.4V67.7L76.3 90.4C77 91.1 77.9 91.5 78.8 91.5S80.6 91.1 81.3 90.4C82.7 89 82.7 86.7 81.3 85.3L58.7 62.6H75.2C83.1 62.6 89.6 56.1 89.6 48.2V19.4C89.6 11.5 83.1 5 75.2 5M82.4 48.2C82.4 52.2 79.2 55.4 75.2 55.4H24.8C20.8 55.4 17.6 52.2 17.6 48.2V19.4C17.6 15.4 20.8 12.2 24.8 12.2H75.2C79.2 12.2 82.4 15.4 82.4 19.4z" fill="#efefef" data-fill-palette-color="accent"></path><path d="M71.7 17C69.4 17 67.4 18.8 67.4 21.2 67.4 21.9 67.6 22.6 67.9 23.2L59.5 34C59.2 33.9 59 33.8 58.7 33.8 57.7 33.8 56.9 34.2 56.1 34.7L46 29.5V29.4C46 27.1 44.2 25.1 41.8 25.1 39.5 25.1 37.5 26.9 37.5 29.3 37.5 30 37.7 30.7 38 31.3L29.8 42C29.5 41.9 29.3 41.8 29 41.8 26.7 41.8 24.7 43.6 24.7 46 24.7 48.3 26.5 50.3 28.9 50.3 31.2 50.3 33.2 48.5 33.2 46.1 33.2 45.4 33 44.7 32.7 44.1L41 33.3C41.3 33.4 41.5 33.5 41.8 33.5 42.8 33.5 43.6 33.1 44.4 32.6L54.5 37.8V37.9C54.5 40.2 56.3 42.2 58.7 42.2 61 42.2 63 40.4 63 38 63 37.3 62.8 36.6 62.5 36L70.9 25.2C71.2 25.3 71.4 25.4 71.7 25.4 74 25.4 76 23.6 76 21.2 75.9 18.9 74.1 17 71.7 17" fill="#efefef" data-fill-palette-color="accent"></path></svg></g></svg></g><g></g></svg></g><defs></defs></svg><rect width="395.5199999999999" height="118.12545973571575" fill="none" stroke="none" visibility="hidden"></rect></g></svg></g></svg>